<svg xmlns="http://www.w3.org/2000/svg" width="40" height="40" viewBox="0 0 40 40">
  <g id="user-placeholder" transform="translate(0.002 0)">
    <rect id="Rectangle_74" data-name="Rectangle 74" width="40" height="40" transform="translate(-0.002 0)" fill="#2375c8"/>
    <path id="Path_74" data-name="Path 74" d="M181.49,55.5c-.306,4.13-3.437,7.5-6.875,7.5s-6.574-3.369-6.875-7.5a6.9,6.9,0,1,1,13.75,0Z" transform="translate(-154.617 -44.25)" fill="#fff"/>
    <path id="Path_75" data-name="Path 75" d="M79,304c-6.8,0-13.7,3.75-14.972,10.828a1.312,1.312,0,0,0,1.222,1.672h27.5a1.312,1.312,0,0,0,1.223-1.672C92.693,307.75,85.795,304,79,304Z" transform="translate(-59 -280.25)" fill="#fff"/>
  </g>
</svg>
