<svg xmlns="http://www.w3.org/2000/svg" width="62" height="62" viewBox="0 0 72 80.591">
  <g id="Bilancia" transform="translate(-778.024 -231.326)">
    <g id="Path_111" data-name="Path 111" transform="translate(782.024 244.793)" fill="#fff">
      <path d="M 58.3619270324707 65.12469482421875 L 6.589245796203613 65.12469482421875 C 1.853125929832458 65.12469482421875 -1.999994039535522 61.31244659423828 -1.999994039535522 56.62656402587891 L -1.999994039535522 6.498125553131104 C -1.999994039535522 1.812245488166809 1.853125929832458 -1.999994516372681 6.589245796203613 -1.999994516372681 L 58.3619270324707 -1.999994516372681 C 63.09805679321289 -1.999994516372681 66.95117950439453 1.812245488166809 66.95117950439453 6.498125553131104 L 66.95117950439453 56.62656402587891 C 66.95117950439453 61.31244659423828 63.09805679321289 65.12469482421875 58.3619270324707 65.12469482421875 Z" stroke="none"/>
      <path d="M 6.589244842529297 3.814697265625e-06 C 2.950103759765625 3.814697265625e-06 0 2.909309387207031 0 6.498134613037109 L 0 56.62655639648438 C 0 60.21538162231445 2.950103759765625 63.12468719482422 6.589244842529297 63.12468719482422 L 58.3619270324707 63.12468719482422 C 62.00106811523438 63.12468719482422 64.951171875 60.21538162231445 64.951171875 56.62655639648438 L 64.951171875 6.498134613037109 C 64.951171875 2.909309387207031 62.00106811523438 3.814697265625e-06 58.3619270324707 3.814697265625e-06 L 6.589244842529297 3.814697265625e-06 M 6.589244842529297 -3.999996185302734 L 58.3619270324707 -3.999996185302734 C 64.20085906982422 -3.999996185302734 68.951171875 0.7094497680664063 68.951171875 6.498134613037109 L 68.951171875 56.62655639648438 C 68.951171875 62.41524124145508 64.20085906982422 67.12468719482422 58.3619270324707 67.12468719482422 L 6.589244842529297 67.12468719482422 C 0.7503128051757813 67.12468719482422 -4 62.41524124145508 -4 56.62655639648438 L -4 6.498134613037109 C -4 0.7094497680664063 0.7503128051757813 -3.999996185302734 6.589244842529297 -3.999996185302734 Z" stroke="none" fill="#242424"/>
    </g>
    <g id="Group_65" data-name="Group 65" transform="translate(26.289 34.289)">
      <path id="Path_105" data-name="Path 105" d="M206.656,15.066A15.066,15.066,0,1,1,191.589,0,15.067,15.067,0,0,1,206.656,15.066Zm0,0" transform="translate(596.816 197.037)" fill="#9a9a9a"/>
      <path id="Path_110" data-name="Path 110" d="M219.616,32.856a10.238,10.238,0,1,1-10.238-10.239A10.238,10.238,0,0,1,219.616,32.856Zm0,0" transform="translate(579.027 179.248)" fill="#fff"/>
      <path id="Path_106" data-name="Path 106" d="M241.117,40.028a1.624,1.624,0,0,1-1.624-1.624v-2.03a1.625,1.625,0,0,1,3.249,0V38.4A1.625,1.625,0,0,1,241.117,40.028Zm0,0" transform="translate(547.289 169.707)" fill="red"/>
      <path id="Path_107" data-name="Path 107" d="M268.848,66.218h-.039a1.625,1.625,0,0,1,.028-3.249h.024a1.625,1.625,0,0,1-.013,3.249Zm0,0" transform="translate(525.497 147.512)" fill="red"/>
      <path id="Path_108" data-name="Path 108" d="M241.083,91.6h-.039a1.625,1.625,0,0,1,.014-3.249h.039a1.625,1.625,0,0,1-.014,3.249Zm0,0" transform="translate(547.335 127.546)" fill="red"/>
      <path id="Path_109" data-name="Path 109" d="M216.169,66.218h-.039a1.625,1.625,0,0,1,.028-3.249h.024a1.625,1.625,0,0,1-.013,3.249Zm0,0" transform="translate(566.932 147.512)" fill="red"/>
    </g>
    <path id="Path_116" data-name="Path 116" d="M8.233,0c4.547,0,8.325,2.219,8.233,8.233S10.247,14.8,10.72,22.166s-.056,13.587-4.6,13.587S0,33.361,0,28.815V8.233A8.233,8.233,0,0,1,8.233,0Z" transform="translate(790.014 267.557) rotate(-11)" fill="#f0f0f0"/>
    <path id="Path_117" data-name="Path 117" d="M8.233,35.753c4.547,0,8.325-2.219,8.233-8.233s-6.219-6.571-5.746-13.933S10.664,0,6.117,0,0,2.391,0,6.938V27.52A8.233,8.233,0,0,0,8.233,35.753Z" transform="translate(831.496 302.652) rotate(-169)" fill="#f0f0f0"/>
  </g>
</svg>
