<svg xmlns="http://www.w3.org/2000/svg" width="62" height="62" viewBox="0 0 55.058 56.471">
  <g id="planner" transform="translate(-4.965 -3)">
    <g id="Path_67" data-name="Path 67" transform="translate(0 4.928)" fill="#fff">
      <path d="M 54.22953796386719 54.04299926757813 L 10.7919979095459 54.04299926757813 C 9.381237030029297 54.03887939453125 8.053537368774414 53.48664855957031 7.054937362670898 52.48805999755859 C 6.056347370147705 51.48945999145508 5.504117488861084 50.16175842285156 5.499997615814209 48.74953842163086 L 5.499997615814209 14.5 L 59.52299880981445 14.5 L 59.52299880981445 48.75099945068359 C 59.51887893676758 50.16175842285156 58.96664810180664 51.48945999145508 57.96805572509766 52.48805999755859 C 56.96945571899414 53.48664855957031 55.64175796508789 54.03887939453125 54.22953796386719 54.04299926757813 Z" stroke="none"/>
      <path d="M 54.22807693481445 53.54299926757813 C 56.86430740356445 53.53530883789063 59.01530838012695 51.38430786132813 59.02299880981445 48.75099945068359 L 59.02299880981445 15 L 5.999997615814209 15 L 5.999997615814209 48.74808120727539 C 6.007687568664551 51.38430786132813 8.158687591552734 53.53530883789063 10.7919979095459 53.54299926757813 L 54.22807693481445 53.54299926757813 M 54.23099899291992 54.54299926757813 L 10.7919979095459 54.54299926757813 C 7.597037315368652 54.53366851806641 5.009327411651611 51.94596099853516 4.999997615814209 48.75099945068359 L 4.999997615814209 14 L 60.02299880981445 14 L 60.02299880981445 48.75099945068359 C 60.01366806030273 51.94596099853516 57.42595672607422 54.53366851806641 54.23099899291992 54.54299926757813 Z" stroke="none" fill="#707070"/>
    </g>
    <path id="Subtraction_3" data-name="Subtraction 3" d="M14343,20630.8h-55.022v-8.693a5.8,5.8,0,0,1,5.787-5.791l43.441,0a5.8,5.8,0,0,1,5.794,5.787Zm-14.011-12.5a3.995,3.995,0,1,0,.011,0Zm-27,0a3.995,3.995,0,1,0,.011,0Z" transform="translate(-14283.013 -20608.982)" fill="#202cc1"/>
    <g id="Group_60" data-name="Group 60" transform="translate(16.584 3)">
      <path id="Path_69" data-name="Path 69" d="M33.9,3A2.9,2.9,0,0,0,31,5.9v7.24a2.9,2.9,0,0,0,5.792,0V5.9A2.9,2.9,0,0,0,33.9,3Z" transform="translate(-4.937 -3)" fill="#b0bec5"/>
      <path id="Path_70" data-name="Path 70" d="M15.9,3A2.9,2.9,0,0,0,13,5.9v7.24a2.9,2.9,0,1,0,5.792,0V5.9A2.9,2.9,0,0,0,15.9,3Z" transform="translate(-13 -3)" fill="#b0bec5"/>
    </g>
    <g id="Group_61" data-name="Group 61" transform="translate(16.306 28.688)">
      <rect id="Rectangle_172" data-name="Rectangle 172" width="9" height="9" transform="translate(-0.293 -0.361)" fill="#b0bec5"/>
      <rect id="Rectangle_173" data-name="Rectangle 173" width="7" height="9" transform="translate(12.707 -0.361)" fill="#b0bec5"/>
      <rect id="Rectangle_174" data-name="Rectangle 174" width="9" height="9" transform="translate(23.707 -0.361)" fill="#b0bec5"/>
      <rect id="Rectangle_175" data-name="Rectangle 175" width="9" height="8" transform="translate(-0.293 12.639)" fill="#b0bec5"/>
      <rect id="Rectangle_176" data-name="Rectangle 176" width="7" height="8" transform="translate(12.707 12.639)" fill="#b0bec5"/>
    </g>
    <rect id="Rectangle_177" data-name="Rectangle 177" width="9" height="8" transform="translate(40.013 41.326)" fill="#f44336"/>
  </g>
</svg>
