<svg xmlns="http://www.w3.org/2000/svg" width="62" height="62" viewBox="6 4 40 44">
  <g id="chiamata-dottore" transform="translate(-84.498 -382.045)">
    <path id="Path_23" data-name="Path 23" d="M49.511,10.058a37.3,37.3,0,0,1-48.59-.022,2.509,2.509,0,0,1-.2-3.7L6.342.716A2.47,2.47,0,0,1,9.366.358L15.1,3.808a2.522,2.522,0,0,1,1.187,2.487l-.694,5.018a31.189,31.189,0,0,0,19.445-.067l-.694-4.883a2.468,2.468,0,0,1,1.165-2.487L41.2.47a2.507,2.507,0,0,1,3.047.381L49.69,6.384A2.517,2.517,0,0,1,49.511,10.058Z" transform="translate(100.99 382.045) rotate(60)" fill="#07ab4c"/>
    <path id="Union_5" data-name="Union 5" d="M5.6,13.363V9.7H2.048a2.048,2.048,0,0,1,0-4.1H5.6V2.048a2.048,2.048,0,0,1,4.1,0V5.6h3.666a2.048,2.048,0,0,1,0,4.1H9.7v3.666a2.048,2.048,0,1,1-4.1,0Z" transform="translate(116.511 387.653)" fill="red"/>
  </g>
</svg>
