<svg xmlns="http://www.w3.org/2000/svg" width="62" height="62" viewBox="0 0 60.243 57.072">
  <g id="contrasto-volume" transform="translate(-5 -6)">
    <path id="Path_57" data-name="Path 57" d="M28,7.1v3.171a23.842,23.842,0,0,1,0,47.243v3.171A26.983,26.983,0,0,0,28,7.1Z" transform="translate(13.463 0.644)" fill="#242424"/>
    <path id="Path_58" data-name="Path 58" d="M19.268,41.365H8.171A3.18,3.18,0,0,1,5,38.195V19.171A3.18,3.18,0,0,1,8.171,16h11.1Z" transform="translate(0 5.853)" fill="#272727"/>
    <path id="Path_59" data-name="Path 59" d="M33.024,63.072,14,47.219V21.853L33.024,6Z" transform="translate(5.268)" fill="#9f9f9f"/>
    <path id="Path_60" data-name="Path 60" d="M28,17.3v3.329a7.969,7.969,0,0,1,0,14.585v3.329A11.08,11.08,0,0,0,28,17.3Z" transform="translate(13.463 6.614)" fill="#242424"/>
    <path id="Path_61" data-name="Path 61" d="M28,12.2v3.171a15.857,15.857,0,0,1,0,31.073v3.171A18.964,18.964,0,0,0,28,12.2Z" transform="translate(13.463 3.629)" fill="#242424"/>
  </g>
</svg>
