<svg xmlns="http://www.w3.org/2000/svg" width="62" height="62" viewBox="0 0 61.972 60.09">
  <g id="Group_198" data-name="Group 198" transform="translate(-797 -1269)">
    <g id="start" transform="translate(791 1263)">
      <path id="Path_82" data-name="Path 82" d="M38,42H10a4.012,4.012,0,0,1-4-4V10a4.012,4.012,0,0,1,4-4H38a4.012,4.012,0,0,1,4,4V38A4.012,4.012,0,0,1,38,42Z" fill="#242424"/>
      <path id="Path_83" data-name="Path 83" d="M31,24,20,16V32Z" fill="#fff"/>
    </g>
    <g id="support" transform="translate(806.89 1277.289)" fill="#fff">
      <path d="M 9.138393402099609 50.30052185058594 C 7.095892906188965 50.30052185058594 5.196763038635254 49.52625274658203 3.790832996368408 48.12032318115234 C 2.333093166351318 46.66257476806641 1.559713006019592 44.69219207763672 1.613163113594055 42.5721435546875 C 1.665099859237671 40.51170349121094 2.493647575378418 38.56464767456055 3.948623657226563 37.07933044433594 C 4.116158008575439 36.88784790039063 4.425032615661621 36.63189315795898 5.423082828521729 35.80482482910156 C 8.175261497497559 33.52411270141602 14.59698677062988 28.20245170593262 20.9537525177002 21.61206245422363 C 20.97236061096191 21.21206665039063 20.76679992675781 20.24472236633301 20.61313247680664 19.52156257629395 C 19.93215370178223 16.31685256958008 18.79241371154785 10.95315265655518 23.28742218017578 6.458153247833252 C 26.57613372802734 3.169443130493164 31.49149322509766 1.206033110618591 36.43601226806641 1.206033110618591 C 37.83182144165039 1.206033110618591 39.19155120849609 1.365703105926514 40.47741317749023 1.68060314655304 L 43.06515121459961 2.314343214035034 L 41.1812744140625 4.19821310043335 L 32.16457748413086 13.21490001678467 C 32.32643127441406 14.03838634490967 32.8443603515625 15.64626884460449 34.49985122680664 17.3017635345459 C 36.15682983398438 18.95873069763184 37.77713775634766 19.47663116455078 38.5918083190918 19.63786506652832 L 47.60955429077148 10.72376346588135 L 49.49153137207031 8.8634033203125 L 50.12101364135742 11.43372344970703 C 50.82299423217773 14.30014324188232 50.72825241088867 17.457763671875 49.8470344543457 20.56523323059082 C 48.97826385498047 23.62879371643066 47.42608261108398 26.37229347229004 45.35829162597656 28.49915313720703 L 45.34622192382813 28.51157379150391 L 45.3338623046875 28.52370262145996 C 44.12884140014648 29.70721244812012 42.78529357910156 30.58286285400391 41.34054183959961 31.12633323669434 C 40.11558151245117 31.58712005615234 38.78142547607422 31.82079315185547 37.37554550170898 31.82079315185547 C 37.37520217895508 31.82079315185547 37.37507629394531 31.82079315185547 37.37473297119141 31.82079315185547 C 35.41494369506836 31.82066345214844 33.64835357666016 31.38374328613281 32.22887420654297 31.03267288208008 C 31.44490623474121 30.83877944946289 30.70343780517578 30.6554012298584 30.28603553771973 30.64715194702148 C 23.55839157104492 37.39497375488281 17.64162063598633 44.58488845825195 15.68703269958496 46.9600830078125 C 15.0949535369873 47.67958450317383 14.99268341064453 47.80230331420898 14.89373302459717 47.90125274658203 C 13.36896324157715 49.42602157592773 11.2712230682373 50.30052185058594 9.138393402099609 50.30052185058594 Z M 9.999472618103027 40.67339324951172 C 9.270382881164551 40.67339324951172 8.76118278503418 41.22763442993164 8.76118278503418 42.02121353149414 C 8.76118278503418 42.72715377807617 9.293533325195313 43.25949478149414 9.999472618103027 43.25949478149414 C 10.67069339752197 43.25949478149414 11.23775291442871 42.64227294921875 11.23775291442871 41.91168212890625 C 11.23775291442871 41.20574188232422 10.70541286468506 40.67339324951172 9.999472618103027 40.67339324951172 Z" stroke="none"/>
      <path d="M 36.43600463867188 2.706027984619141 C 32.01678085327148 2.706027984619141 27.41878509521484 4.448101043701172 24.34808349609375 7.518814086914063 C 18.43338394165039 13.43350219726563 23.69089317321777 20.99118232727051 22.1574535369873 22.52461242675781 C 13.83307266235352 31.17760276794434 5.28961181640625 37.74948120117188 5.070552825927734 38.07808303833008 C 2.551334381103516 40.59730529785156 2.441791534423828 44.64996337890625 4.851493835449219 47.05965423583984 C 6.016185760498047 48.22434997558594 7.564720153808594 48.80052185058594 9.138397216796875 48.80052185058594 C 10.82057189941406 48.80052185058594 12.5314826965332 48.14218139648438 13.83307266235352 46.84059143066406 C 14.16166305541992 46.51200103759766 21.17167282104492 37.63995361328125 29.38653373718262 29.42509269714355 C 29.58560752868652 29.22601890563965 29.88119506835938 29.14693641662598 30.25739479064941 29.1468620300293 C 31.70772171020508 29.14658164978027 34.36414337158203 30.3207893371582 37.37482452392578 30.3207893371582 C 39.59869003295898 30.3207893371582 42.01521301269531 29.68062973022461 44.28280258178711 27.45353317260742 C 48.11640167236328 23.51040267944336 49.97844314575195 17.15757369995117 48.6640625 11.79053497314453 L 39.13483428955078 21.21024322509766 C 39.13483428955078 21.21024322509766 36.28701400756836 21.21024322509766 33.43919372558594 18.36242294311523 C 30.59137344360352 15.51460266113281 30.59137344360352 12.66678237915039 30.59137344360352 12.66678237915039 L 40.12061309814453 3.137554168701172 C 38.93314361572266 2.846744537353516 37.69156646728516 2.706027984619141 36.43600463867188 2.706027984619141 M 9.999473571777344 44.75949478149414 C 8.466022491455078 44.75949478149414 7.261184692382813 43.55465316772461 7.261184692382813 42.02121353149414 C 7.261184692382813 40.37823486328125 8.466033935546875 39.17339324951172 9.999473571777344 39.17339324951172 C 11.53291320800781 39.17339324951172 12.73775482177734 40.37823486328125 12.73775482177734 41.91168212890625 C 12.73775482177734 43.44512176513672 11.53291320800781 44.75949478149414 9.999473571777344 44.75949478149414 M 36.43600463867188 -0.2939682006835938 C 37.95193481445313 -0.2939682006835938 39.43171310424805 -0.1198081970214844 40.83422088623047 0.223663330078125 L 46.00968170166016 1.491123199462891 L 42.2419319152832 5.258872985839844 L 33.84623336791992 13.65456390380859 C 34.09654998779297 14.33546447753906 34.58990097045898 15.27048873901367 35.56051254272461 16.24110412597656 C 36.53565216064453 17.21623992919922 37.47492599487305 17.70967483520508 38.1566162109375 17.95888900756836 L 46.5550422668457 9.656982421875 L 50.31901168823242 5.936271667480469 L 51.57795333862305 11.07692337036133 C 53.11973190307617 17.37249374389648 51.05244445800781 24.79415321350098 46.43378448486328 29.54477310180664 L 46.40964508056641 29.56960296630859 L 46.38493347167969 29.59387397766113 C 43.86696243286133 32.06687164306641 40.83553314208984 33.32079315185547 37.37482452392578 33.32079315185547 C 35.23238372802734 33.32079315185547 33.2884521484375 32.83993530273438 31.86905288696289 32.48882293701172 C 31.54220199584961 32.40796661376953 31.14646148681641 32.31007385253906 30.81893348693848 32.23974609375 C 24.36174392700195 38.77920532226563 18.73712158203125 45.61427307128906 16.84528350830078 47.91322326660156 C 16.23827362060547 48.65085220336914 16.11195373535156 48.80435180664063 15.95439147949219 48.9619140625 C 15.03473281860352 49.88158416748047 13.96117401123047 50.59610366821289 12.76353454589844 51.08563232421875 C 11.60299301147461 51.55999374389648 10.38332366943359 51.80052185058594 9.138393402099609 51.80052185058594 C 6.695213317871094 51.80052185058594 4.419391632080078 50.87021255493164 2.73016357421875 49.18096160888672 C 0.9789619445800781 47.42977142333984 0.04972457885742188 45.06928253173828 0.1136322021484375 42.53433227539063 C 0.1745033264160156 40.11992263793945 1.134090423583984 37.83810043334961 2.820075988769531 36.08834075927734 C 3.062030792236328 35.81328964233398 3.440628051757813 35.49954223632813 4.465972900390625 34.64985275268555 C 7.129276275634766 32.44280242919922 13.25259780883789 27.36855888366699 19.39253234863281 21.06746101379395 C 19.32970428466797 20.69836235046387 19.22822570800781 20.22079277038574 19.14589309692383 19.83334350585938 C 18.79313278198242 18.17325210571289 18.31002426147461 15.89968490600586 18.50422286987305 13.42504501342773 C 18.74748229980469 10.32517242431641 19.99993133544922 7.624324798583984 22.22676277160645 5.397491455078125 C 25.79056358337402 1.833683013916016 31.1024227142334 -0.2939682006835938 36.43600463867188 -0.2939682006835938 Z" stroke="none" fill="#242424"/>
    </g>
  </g>
</svg>
