<svg xmlns="http://www.w3.org/2000/svg" width="61.715" height="68.572" viewBox="0 0 61.715 68.572">
  <g id="contacts" transform="translate(-2.143 0.286)">
    <path id="Path_84" data-name="Path 84" d="M56.572,72.572H12V4H56.572a6.877,6.877,0,0,1,6.857,6.857V65.715A6.877,6.877,0,0,1,56.572,72.572Z" transform="translate(0.428 -4.286)" fill="#9a9a9a"/>
    <path id="Path_85" data-name="Path 85" d="M12.857,4h3.429V72.572H12.857A6.877,6.877,0,0,1,6,65.715V10.857A6.877,6.877,0,0,1,12.857,4Z" transform="translate(-3.857 -4.286)" fill="#242424"/>
    <path id="support" d="M38.6,9.784l-7.425,7.34A6.872,6.872,0,0,1,26.742,14.9a6.872,6.872,0,0,1-2.219-4.438l7.425-7.425A13.573,13.573,0,0,0,19.658,6.456c-4.609,4.609-.512,10.5-1.707,11.692A170.167,170.167,0,0,1,4.638,30.267a4.975,4.975,0,0,0-.171,7,4.975,4.975,0,0,0,7-.171c.256-.256,5.718-7.169,12.119-13.57,1.195-1.195,6.827,3.158,11.607-1.536A13.643,13.643,0,0,0,38.6,9.784ZM8.478,35.473a2.177,2.177,0,1,1,2.134-2.219A2.186,2.186,0,0,1,8.478,35.473Z" transform="translate(16.966 14.379)" fill="#fff"/>
  </g>
</svg>
