<svg xmlns="http://www.w3.org/2000/svg" width="62" height="62" viewBox="0 0 80.983 62.27">
  <g id="Group_24" data-name="Group 24" transform="translate(-100.674 -450.73)">
    <path id="Subtraction_1" data-name="Subtraction 1" d="M14.246,44.521V33.836H7.124A7.132,7.132,0,0,1,0,26.712V7.124A7.132,7.132,0,0,1,7.124,0H37.4a7.144,7.144,0,0,1,7.123,7.124v4.47H38.589a8.306,8.306,0,0,0-8.282,8.282v13.96H25.822L14.248,44.519Z" transform="translate(100.674 450.73)" fill="#242424" opacity="0.495"/>
    <path id="Path_44" data-name="Path 44" d="M48.148.75H17.873A7.144,7.144,0,0,0,10.75,7.873V27.463a7.144,7.144,0,0,0,7.123,7.123H29.449L41.024,45.271V34.586h7.123a7.144,7.144,0,0,0,7.123-7.123V7.873A7.144,7.144,0,0,0,48.148.75Z" transform="translate(126.386 467.73)" fill="#242424"/>
  </g>
</svg>
