<svg xmlns="http://www.w3.org/2000/svg" width="75.976" height="62.148" viewBox="0 0 75.976 62.148">
  <g id="contrasto-cambio-tema" transform="translate(-572.023 -244.928)">
    <path id="Subtraction_4" data-name="Subtraction 4" d="M11788.478,22512.795l0,0a139.019,139.019,0,0,1-20.41-14.344,69.623,69.623,0,0,1-11.837-12.65c-3.47-5-5.229-9.758-5.229-14.152a20.486,20.486,0,0,1,1.634-8.045,20.921,20.921,0,0,1,11.037-11.037,20.413,20.413,0,0,1,8.043-1.637,20.87,20.87,0,0,1,9.6,2.316,20.091,20.091,0,0,1,7.168,6.266v53.285Z" transform="translate(-11178.977 -22206)" fill="#e91c01"/>
    <path id="Subtraction_5" data-name="Subtraction 5" d="M11788.976,22513.076v0h0l0,0a142.787,142.787,0,0,1-18.982-13.01,75.993,75.993,0,0,1-13.054-13.277c-3.937-5.361-5.934-10.455-5.934-15.139a20.486,20.486,0,0,1,1.634-8.045,20.921,20.921,0,0,1,11.037-11.037,20.624,20.624,0,0,1,25.3,7.688v52.824Z" transform="translate(-11178.977 -22206)" fill="#dbdbdb"/>
    <path id="Subtraction_6" data-name="Subtraction 6" d="M20.715,62.147a20.457,20.457,0,0,1-8.043-1.635A20.918,20.918,0,0,1,1.635,49.475,20.457,20.457,0,0,1,0,41.432c0-4.669,1.982-9.743,5.892-15.082A75.534,75.534,0,0,1,18.876,13.106,139.614,139.614,0,0,1,37.976,0V52.827A20.293,20.293,0,0,1,20.715,62.147Z" transform="translate(647.999 307.076) rotate(180)" fill="#242424"/>
  </g>
</svg>
