<svg xmlns="http://www.w3.org/2000/svg" width="62" height="62" viewBox="0 0 59.03 60.198">
  <g id="settings" transform="translate(-3.556 -4.1)">
    <path id="Path_76" data-name="Path 76" d="M55.465,37.367a21.572,21.572,0,0,0,.288-3.168,21.571,21.571,0,0,0-.288-3.168l6.481-4.608a1.55,1.55,0,0,0,.432-2.016L56.041,13.749a1.3,1.3,0,0,0-1.872-.576l-7.2,3.312A25.818,25.818,0,0,0,41.5,13.317L40.775,5.4a1.531,1.531,0,0,0-1.44-1.3H26.95a1.421,1.421,0,0,0-1.44,1.3l-.72,7.921a22.68,22.68,0,0,0-5.473,3.168l-7.2-3.312a1.517,1.517,0,0,0-1.872.576L4.052,24.406a1.55,1.55,0,0,0,.432,2.016l6.481,4.608a21.572,21.572,0,0,0-.288,3.168,21.572,21.572,0,0,0,.288,3.168L4.2,41.976a1.55,1.55,0,0,0-.432,2.016L9.956,54.649a1.3,1.3,0,0,0,1.872.576l7.2-3.312A25.818,25.818,0,0,0,24.5,55.081L25.222,63a1.531,1.531,0,0,0,1.44,1.3H39.047a1.421,1.421,0,0,0,1.44-1.3l.72-7.921a22.68,22.68,0,0,0,5.473-3.168l7.2,3.312a1.517,1.517,0,0,0,1.872-.576l6.193-10.657a1.55,1.55,0,0,0-.432-2.016ZM33,48.6A14.4,14.4,0,1,1,47.4,34.2,14.444,14.444,0,0,1,33,48.6Z" transform="translate(0)" fill="#525252"/>
    <path id="Path_77" data-name="Path 77" d="M29.282,13A17.282,17.282,0,1,0,46.564,30.282,17.333,17.333,0,0,0,29.282,13Zm0,24.483a7.2,7.2,0,1,1,7.2-7.2A7.131,7.131,0,0,1,29.282,37.483Z" transform="translate(3.717 3.917)" fill="#242424"/>
  </g>
</svg>
