<svg xmlns="http://www.w3.org/2000/svg" width="62" height="62" viewBox="0 0 26.509 25.117"><g transform="translate(-935.491 -514)"><line y1="4" transform="translate(951.5 514.5)" fill="none" stroke="#707070" stroke-linecap="round" stroke-width="1"/><line y1="4" transform="translate(958.5 514.5)" fill="none" stroke="#707070" stroke-linecap="round" stroke-width="1"/><path d="M955,529.282a12.223,12.223,0,0,1-1.4,6.994c-1.887,3.109-5.884,2.442-7.993,0s-.944-8.826-2.775-11.213-5.467.914-7.332.937" fill="none" stroke="#242424" stroke-width="1.5"/><g transform="translate(948 518)"><path d="M0,0H14V7a5,5,0,0,1-5,5H5A5,5,0,0,1,0,7Z" fill="#242424"/><path d="M1,.5H13a.5.5,0,0,1,.5.5V7A4.5,4.5,0,0,1,9,11.5H5A4.5,4.5,0,0,1,.5,7V1A.5.5,0,0,1,1,.5Z" fill="none" stroke="#242424" stroke-width="1"/></g></g></svg>