<svg id="temperature" xmlns="http://www.w3.org/2000/svg" width="39.953" height="67.766" viewBox="0 0 39.953 67.766">
  <path id="Path_46" data-name="Path 46" d="M70.05,147.379V121.2a1.985,1.985,0,1,0-3.971,0v26.175a8.065,8.065,0,1,0,3.971,0Zm-1.985,11.913a4.095,4.095,0,1,1,4.094-4.095A4.1,4.1,0,0,1,68.064,159.292Zm0,0" transform="translate(-52.059 -103.44)" fill="#242424" opacity="0.647"/>
  <path id="Path_47" data-name="Path 47" d="M25.859,39.141V9.854a9.853,9.853,0,1,0-19.706,0V39.141a16.006,16.006,0,1,0,19.706,0ZM16.006,63.795a12.039,12.039,0,0,1-6.752-22,1.986,1.986,0,0,0,.87-1.643V9.854a5.882,5.882,0,1,1,11.765,0V40.148a1.986,1.986,0,0,0,.87,1.643,12.039,12.039,0,0,1-6.752,22Zm0,0" fill="#242424"/>
  <path id="Path_48" data-name="Path 48" d="M233.513,239.488H227.36a1.985,1.985,0,1,0,0,3.971h6.153a1.985,1.985,0,0,0,0-3.971Zm0,0" transform="translate(-195.546 -207.791)" fill="#242424" opacity="0.647"/>
  <path id="Path_49" data-name="Path 49" d="M233.513,179.477H227.36a1.985,1.985,0,1,0,0,3.971h6.153a1.985,1.985,0,0,0,0-3.971Zm0,0" transform="translate(-195.546 -155.722)" fill="#242424" opacity="0.647"/>
  <path id="Path_50" data-name="Path 50" d="M233.513,119.465H227.36a1.985,1.985,0,0,0,0,3.971h6.153a1.985,1.985,0,0,0,0-3.971Zm0,0" transform="translate(-195.546 -103.653)" fill="#242424" opacity="0.647"/>
  <path id="Path_51" data-name="Path 51" d="M227.36,63.424h6.153a1.985,1.985,0,0,0,0-3.971H227.36a1.985,1.985,0,1,0,0,3.971Zm0,0" transform="translate(-195.546 -51.584)" fill="#242424" opacity="0.647"/>
</svg>
