<svg xmlns="http://www.w3.org/2000/svg" width="62" height="62" viewBox="0 0 55.024 56.471">
  <g id="planner" transform="translate(-5 -3)">
    <g id="Path_67" data-name="Path 67" transform="translate(0 4.928)" fill="#fff">
      <path d="M 54.23100662231445 53.54319381713867 L 10.79187774658203 53.54319381713867 C 8.149627685546875 53.54319381713867 5.999998092651367 51.3935661315918 5.999998092651367 48.75130462646484 L 5.999998092651367 15.00000476837158 L 59.02289962768555 15.00000476837158 L 59.02289962768555 48.75130462646484 C 59.02289962768555 51.3935661315918 56.87326812744141 53.54319381713867 54.23100662231445 53.54319381713867 Z" stroke="none"/>
      <path d="M 54.23100662231445 52.54319381713867 C 55.23745727539063 52.54319381713867 56.18792724609375 52.14700317382813 56.90731811523438 51.42761611938477 C 57.626708984375 50.70822525024414 58.02289962768555 49.75775527954102 58.02289962768555 48.75130462646484 L 58.02289962768555 16.0000057220459 L 6.999998092651367 16.0000057220459 L 6.999998092651367 48.75130462646484 C 6.999998092651367 49.75775527954102 7.396187782287598 50.70822525024414 8.115577697753906 51.42761611938477 C 8.834967613220215 52.14700317382813 9.785428047180176 52.54319381713867 10.79187774658203 52.54319381713867 L 54.23100662231445 52.54319381713867 M 54.23100662231445 54.54319381713867 L 10.79187774658203 54.54319381713867 C 7.606348037719727 54.54319381713867 4.999998092651367 51.93684387207031 4.999998092651367 48.75130462646484 L 4.999998092651367 14.00000476837158 L 60.02289962768555 14.00000476837158 L 60.02289962768555 48.75130462646484 C 60.02289962768555 51.93684387207031 57.41654968261719 54.54319381713867 54.23100662231445 54.54319381713867 Z" stroke="none" fill="#242424"/>
    </g>
    <path id="Subtraction_3" data-name="Subtraction 3" d="M14343.037,20630.809h-55.022v-8.693a5.8,5.8,0,0,1,5.788-5.789h43.44a5.8,5.8,0,0,1,5.794,5.789v8.693Zm-14.011-12.5a4,4,0,1,0,4,4A4,4,0,0,0,14329.026,20618.309Zm-27,0a4,4,0,1,0,4,4A4,4,0,0,0,14302.024,20618.309Z" transform="translate(-14283.013 -20608.982)" fill="#242424"/>
    <g id="Group_60" data-name="Group 60" transform="translate(16.584 3)">
      <path id="Path_69" data-name="Path 69" d="M33.9,3A2.9,2.9,0,0,0,31,5.9v7.24a2.9,2.9,0,0,0,5.792,0V5.9A2.9,2.9,0,0,0,33.9,3Z" transform="translate(-4.937 -3)" fill="#727272"/>
      <path id="Path_70" data-name="Path 70" d="M15.9,3A2.9,2.9,0,0,0,13,5.9v7.24a2.9,2.9,0,1,0,5.792,0V5.9A2.9,2.9,0,0,0,15.9,3Z" transform="translate(-13 -3)" fill="#727272"/>
    </g>
    <g id="Group_61" data-name="Group 61" transform="translate(16.306 28.688)">
      <rect id="Rectangle_172" data-name="Rectangle 172" width="9" height="9" transform="translate(-0.293 -0.361)" fill="#727272"/>
      <rect id="Rectangle_173" data-name="Rectangle 173" width="7" height="9" transform="translate(12.707 -0.361)" fill="#727272"/>
      <rect id="Rectangle_174" data-name="Rectangle 174" width="9" height="9" transform="translate(23.707 -0.361)" fill="#727272"/>
      <rect id="Rectangle_175" data-name="Rectangle 175" width="9" height="8" transform="translate(-0.293 12.639)" fill="#727272"/>
      <rect id="Rectangle_176" data-name="Rectangle 176" width="7" height="8" transform="translate(12.707 12.639)" fill="#727272"/>
    </g>
    <rect id="Rectangle_177" data-name="Rectangle 177" width="9" height="8" transform="translate(40.013 41.326)" fill="#242424"/>
  </g>
</svg>
