<svg xmlns="http://www.w3.org/2000/svg" width="62" height="62" viewBox="0 0 63.418 63.418">
  <g id="promemoria" transform="translate(-2 -1.9)">
    <path id="Path_71" data-name="Path 71" d="M29.61,63.592,3.726,37.707a5.73,5.73,0,0,1,0-8.2L29.61,3.626a5.73,5.73,0,0,1,8.2,0L63.692,29.51a5.73,5.73,0,0,1,0,8.2L37.807,63.592A5.729,5.729,0,0,1,29.61,63.592Z" transform="translate(0)" fill="#242424"/>
    <path id="Path_72" data-name="Path 72" d="M21.6,41.329a4.2,4.2,0,0,1,.288-1.294,2.579,2.579,0,0,1,.719-1.007,3.131,3.131,0,0,1,1.15-.719,3.739,3.739,0,0,1,2.876,0,3.131,3.131,0,0,1,1.15.719,2.579,2.579,0,0,1,.719,1.007,4.2,4.2,0,0,1,.288,1.294,4.2,4.2,0,0,1-.288,1.294,2.579,2.579,0,0,1-.719,1.007,3.131,3.131,0,0,1-1.15.719,3.739,3.739,0,0,1-2.876,0,5.045,5.045,0,0,1-1.15-.719,2.579,2.579,0,0,1-.719-1.007A3.434,3.434,0,0,1,21.6,41.329Zm6.04-6.615H22.463L21.744,13h6.615Z" transform="translate(8.586 4.862)" fill="#fff"/>
  </g>
</svg>
