<svg xmlns="http://www.w3.org/2000/svg" width="62" height="62" viewBox="0 0 578.599 421">
  <g id="diminuisci-font" transform="translate(-11.401 -79.5)">
    <path id="Path_1" data-name="Path 1" d="M32,415.5l120-320,120,320" fill="none" stroke="#000" stroke-linecap="round" stroke-linejoin="round" stroke-width="32"/>
    <line id="Line_1" data-name="Line 1" x1="156" transform="translate(74 303.5)" fill="none" stroke="#000" stroke-linecap="round" stroke-linejoin="round" stroke-width="32"/>
    <path id="Path_2" data-name="Path 2" d="M326,239.5c12.19-28.69,41-48,74-48h0c46,0,80,32,80,80v144" fill="none" stroke="#000" stroke-linecap="round" stroke-linejoin="round" stroke-width="32"/>
    <path id="Path_3" data-name="Path 3" d="M320,358.5c0,36,26.86,58,60,58,54,0,100-27,100-106v-15c-20,0-58,1-92,5C355.23,304.36,320,319.5,320,358.5Z" fill="none" stroke="#000" stroke-linecap="round" stroke-linejoin="round" stroke-width="32"/>
    <circle id="Ellipse_1" data-name="Ellipse 1" cx="110" cy="110" r="110" transform="translate(370 280.5)" fill="#0a66c2"/>
    <path id="Union_23" data-name="Union 23" d="M13455,21385.012a11.539,11.539,0,0,1,11.539,11.539v96.924a11.539,11.539,0,0,1-23.077,0v-96.924A11.539,11.539,0,0,1,13455,21385.012Z" transform="translate(21924.537 -13064.465) rotate(90)" fill="#fff"/>
  </g>
</svg>
