<svg xmlns="http://www.w3.org/2000/svg" width="104.765" height="62.146" viewBox="0 0 104.765 62.146">
  <g id="Group_143" data-name="Group 143" transform="translate(-71.235 -195.93)">
    <path id="like" d="M57.241,9a20.307,20.307,0,0,0-17.263,9.322A20.307,20.307,0,0,0,22.715,9,20.776,20.776,0,0,0,2,29.715c0,20.543,37.978,41.43,37.978,41.43S77.956,50.43,77.956,29.715A20.776,20.776,0,0,0,57.241,9Z" transform="translate(85.022 186.93)" fill="#e91c01"/>
    <path id="Path_65" data-name="Path 65" d="M-14308.265-21080h32l5.093-8.641,4.914,14.936,6.633-14.936,4.432,14.936,5.149-14.936,4.295,8.641h31.191" transform="translate(14385 21309)" fill="none" stroke="#fff" stroke-linecap="round" stroke-linejoin="round" stroke-width="11"/>
    <path id="Path_66" data-name="Path 66" d="M-14308.265-21080h32l5.093-8.641,4.914,14.936,6.633-14.936,4.432,14.936,5.149-14.936,4.295,8.641h31.191" transform="translate(14385 21309)" fill="none" stroke="#242424" stroke-linecap="round" stroke-linejoin="round" stroke-width="3"/>
    <circle id="Ellipse_23" data-name="Ellipse 23" cx="4" cy="4" r="4" transform="translate(168 225)" fill="#242424"/>
  </g>
</svg>
