<svg xmlns="http://www.w3.org/2000/svg" width="62" height="62" viewBox="0 0 36.286 37.004">
  <g id="settings" transform="translate(-3.556 -4.1)">
    <path id="Path_76" data-name="Path 76" d="M35.464,24.549a13.26,13.26,0,0,0,.177-1.948,13.259,13.259,0,0,0-.177-1.948l3.984-2.833a.953.953,0,0,0,.266-1.239l-3.9-6.551a.8.8,0,0,0-1.151-.354l-4.426,2.036a15.87,15.87,0,0,0-3.364-1.948L26.435,4.9a.941.941,0,0,0-.885-.8H17.936a.873.873,0,0,0-.885.8l-.443,4.869a13.942,13.942,0,0,0-3.364,1.948L8.818,9.677a.933.933,0,0,0-1.151.354L3.86,16.582a.953.953,0,0,0,.266,1.239L8.11,20.654A13.26,13.26,0,0,0,7.933,22.6a13.26,13.26,0,0,0,.177,1.948L3.949,27.382a.953.953,0,0,0-.266,1.239L7.49,35.173a.8.8,0,0,0,1.151.354l4.426-2.036a15.87,15.87,0,0,0,3.364,1.948l.443,4.869a.941.941,0,0,0,.885.8h7.613a.873.873,0,0,0,.885-.8l.443-4.869a13.942,13.942,0,0,0,3.364-1.948l4.426,2.036a.933.933,0,0,0,1.151-.354l3.807-6.551a.953.953,0,0,0-.266-1.239Zm-13.81,6.905A8.853,8.853,0,1,1,30.507,22.6,8.879,8.879,0,0,1,21.654,31.454Z" transform="translate(0)" fill="#607d8b"/>
    <path id="Path_77" data-name="Path 77" d="M22.623,13A10.623,10.623,0,1,0,33.246,23.623,10.654,10.654,0,0,0,22.623,13Zm0,15.049a4.426,4.426,0,1,1,4.426-4.426A4.383,4.383,0,0,1,22.623,28.049Z" transform="translate(-0.969 -1.021)" fill="#455a64"/>
  </g>
</svg>
