<svg xmlns="http://www.w3.org/2000/svg" width="58.973" height="57.09" viewBox="0 0 58.973 57.09">
  <g id="Group_197" data-name="Group 197" transform="translate(-797 -1269)">
    <g id="start" transform="translate(791 1263)">
      <path id="Path_82" data-name="Path 82" d="M38,42H10a4.012,4.012,0,0,1-4-4V10a4.012,4.012,0,0,1,4-4H38a4.012,4.012,0,0,1,4,4V38A4.012,4.012,0,0,1,38,42Z" fill="red"/>
      <path id="Path_83" data-name="Path 83" d="M31,24,20,16V32Z" fill="#fff"/>
    </g>
    <path id="support" d="M48.664,11.791l-9.529,9.42a8.82,8.82,0,0,1-5.7-2.848,8.82,8.82,0,0,1-2.848-5.7l9.529-9.529A17.42,17.42,0,0,0,24.348,7.519c-5.915,5.915-.657,13.472-2.191,15.006A218.4,218.4,0,0,1,5.071,38.078a6.385,6.385,0,0,0-.219,8.982,6.385,6.385,0,0,0,8.982-.219c.329-.329,7.339-9.2,15.553-17.415,1.533-1.533,8.763,4.053,14.9-1.972A17.51,17.51,0,0,0,48.664,11.791ZM10,44.759a2.794,2.794,0,1,1,2.738-2.848A2.806,2.806,0,0,1,10,44.759Z" transform="translate(806.89 1277.289)" fill="#607d8b"/>
  </g>
</svg>
