<svg xmlns="http://www.w3.org/2000/svg" width="62" height="62" viewBox="0 0 105.101 64.189">
  <g id="Group_72" data-name="Group 72" transform="translate(-290.449 -766.611)">
    <path id="Path_119" data-name="Path 119" d="M202.1,152.3A32.095,32.095,0,1,0,234.2,184.394,32.131,32.131,0,0,0,202.1,152.3Z" transform="translate(143.001 614.313)" fill="#fcc23f"/>
    <path id="Path_120" data-name="Path 120" d="M459.843,78.442V50.633a.625.625,0,0,0-1.123-.378,26.32,26.32,0,0,0-5.348,15.9V76.332a2.113,2.113,0,0,0,2.113,2.113h.881c-.868,8.967-1.442,21.509-1.442,22.978,0,2.314,1.424,4.189,3.181,4.189s3.181-1.876,3.181-4.189C461.285,99.953,460.711,87.41,459.843,78.442Z" transform="translate(-65.734 722.184)" fill="#fc883f"/>
    <path id="Path_121" data-name="Path 121" d="M9.234,88.9a6.081,6.081,0,0,0,2.937-5.208L11.3,69.438a1.03,1.03,0,0,0-2.057.114l.567,11.433a1.164,1.164,0,1,1-2.327,0L7.2,69.557a1.113,1.113,0,0,0-2.226,0L4.689,80.985a1.164,1.164,0,1,1-2.327,0l.567-11.433a1.03,1.03,0,0,0-2.057-.114L0,83.693A6.081,6.081,0,0,0,2.937,88.9a3.442,3.442,0,0,1,1.637,3.322C3.58,101.179,2.9,115.8,2.9,117.393c0,2.314,1.424,4.189,3.181,4.189s3.181-1.876,3.181-4.189c0-1.593-.675-16.214-1.669-25.17A3.443,3.443,0,0,1,9.234,88.9Z" transform="translate(290.449 706.213)" fill="#fc883f"/>
    <path id="Path_122" data-name="Path 122" d="M194.032,152.3a24.023,24.023,0,1,0,24.023,24.023A24.05,24.05,0,0,0,194.032,152.3Z" transform="translate(151.073 622.385)" fill="#fce63f"/>
  </g>
</svg>
