<svg xmlns="http://www.w3.org/2000/svg" width="62" height="62" viewBox="0 0 76.678 71.224">
  <g id="patient" transform="translate(1.563)">
    <path id="Path_86" data-name="Path 86" d="M320.223,33.65a1.116,1.116,0,0,1-1.116-1.116V19.863A12.322,12.322,0,0,0,299.5,9.928a1.117,1.117,0,0,1-1.323-1.8A14.556,14.556,0,0,1,321.34,19.863v12.67A1.117,1.117,0,0,1,320.223,33.65Zm0,0" transform="translate(-254.041 -4.53)" fill="#242424"/>
    <path id="Path_87" data-name="Path 87" d="M436.034,198.665h-6.26v-5.942a1.843,1.843,0,0,1,1.844-1.844h2.573a1.843,1.843,0,0,1,1.844,1.844Zm0,0" transform="translate(-366.721 -162.875)" fill="#9a9a9a"/>
    <path id="Path_88" data-name="Path 88" d="M408.085,238.821c0-7.667-4-13.883-8.933-13.883s-8.933,6.216-8.933,13.883,4,13.884,8.933,13.884S408.085,246.489,408.085,238.821Zm0,0" transform="translate(-332.969 -191.937)" fill="#242424"/>
    <path id="Path_89" data-name="Path 89" d="M448.35,238.82c0,7.668-4,13.884-8.933,13.884a5.949,5.949,0,0,1-2.01-.353c3.966-1.417,6.923-6.937,6.923-13.531s-2.957-12.112-6.923-13.529a5.948,5.948,0,0,1,2.01-.353C444.351,224.938,448.35,231.154,448.35,238.82Zm0,0" transform="translate(-373.234 -191.937)" fill="#242424"/>
    <path id="Path_90" data-name="Path 90" d="M159.764,132.939H136c-2.244,0-4.063-1.293-4.063-2.888V96.782c0-1.595,1.819-2.888,4.063-2.888h23.764c2.244,0,4.063,1.293,4.063,2.888v33.27C163.827,131.647,162.008,132.939,159.764,132.939Zm0,0" transform="translate(-112.581 -80.119)" fill="#242424"/>
    <path id="Path_95" data-name="Path 95" d="M197.233,10.355A10.355,10.355,0,1,1,186.878,0,10.355,10.355,0,0,1,197.233,10.355Zm0,0" transform="translate(-150.626)" fill="#9a9a9a"/>
    <path id="Path_96" data-name="Path 96" d="M213.213,29.654a7.036,7.036,0,1,1-7.036-7.037A7.037,7.037,0,0,1,213.213,29.654Zm0,0" transform="translate(-169.925 -19.299)" fill="#fff"/>
    <path id="Path_97" data-name="Path 97" d="M240.609,38.378a1.116,1.116,0,0,1-1.116-1.116V35.866a1.117,1.117,0,0,1,2.233,0v1.395A1.117,1.117,0,0,1,240.609,38.378Zm0,0" transform="translate(-204.356 -29.652)" fill="red"/>
    <path id="Path_98" data-name="Path 98" d="M268.333,65.2h-.027a1.117,1.117,0,0,1,.02-2.233h.017a1.117,1.117,0,0,1-.009,2.233Zm0,0" transform="translate(-227.998 -53.73)" fill="red"/>
    <path id="Path_99" data-name="Path 99" d="M240.567,90.585h-.027a1.117,1.117,0,0,1,.01-2.233h.027a1.117,1.117,0,0,1-.01,2.233Zm0,0" transform="translate(-204.306 -75.389)" fill="red"/>
    <path id="Path_100" data-name="Path 100" d="M215.653,65.2h-.027a1.117,1.117,0,0,1,.019-2.233h.017a1.117,1.117,0,0,1-.009,2.233Zm0,0" transform="translate(-183.047 -53.73)" fill="red"/>
    <path id="Path_101" data-name="Path 101" d="M81.927,206.9a8.926,8.926,0,0,0-16.646-4.483A8.927,8.927,0,0,0,48.633,206.9c0,12.493,16.647,23.251,16.647,23.251S81.927,219.4,81.927,206.9Zm0,0" transform="translate(-50.195 -158.931)" fill="red"/>
    <path id="Path_103" data-name="Path 103" d="M444.616,271.076a1.117,1.117,0,0,1-1.116-1.117V252.4a1.117,1.117,0,1,1,2.233,0v17.561A1.117,1.117,0,0,1,444.616,271.076Zm0,0" transform="translate(-378.434 -214.415)" fill="#fff"/>
    <path id="Path_104" data-name="Path 104" d="M282.136,187.025c-.617,0-1.117-.318-1.117-.71V158c0-.392.5-.71,1.117-.71s1.117.318,1.117.71v28.319C283.253,186.707,282.753,187.025,282.136,187.025Zm0,0" transform="translate(-239.791 -134.21)" fill="#fff"/>
  </g>
</svg>
