<svg xmlns="http://www.w3.org/2000/svg" width="41.187" height="52.526" viewBox="0 0 41.187 52.526">
  <g id="white-chiamata" transform="translate(-412.215 -51.313)">
    <path id="Path_23" data-name="Path 23" d="M48.909,9.936a36.848,36.848,0,0,1-48-.022,2.478,2.478,0,0,1-.2-3.651L6.265.708A2.44,2.44,0,0,1,9.252.354l5.665,3.408a2.491,2.491,0,0,1,1.173,2.456L15.4,11.175a30.81,30.81,0,0,0,19.209-.066l-.686-4.824a2.438,2.438,0,0,1,1.151-2.456L40.7.464a2.476,2.476,0,0,1,3.01.376l5.378,5.466A2.486,2.486,0,0,1,48.909,9.936Z" transform="translate(428.507 51.313) rotate(60)" fill="#fff"/>
  </g>
</svg>
