<svg xmlns="http://www.w3.org/2000/svg" width="62" height="62" viewBox="0 0 42.289 32.517">
  <g id="white-messaggi" transform="translate(-100.674 -450.73)">
    <path id="Subtraction_1" data-name="Subtraction 1" d="M7.439,23.249h0V17.669H3.72A3.724,3.724,0,0,1,0,13.949V3.72A3.724,3.724,0,0,1,3.72,0H19.529a3.731,3.731,0,0,1,3.719,3.72V6.054h-3.1a4.338,4.338,0,0,0-4.325,4.325v7.29H13.484L7.44,23.248Z" transform="translate(100.674 450.73)" fill="#fff" opacity="0.699"/>
    <path id="Path_44" data-name="Path 44" d="M30.279.75H14.47a3.731,3.731,0,0,0-3.72,3.72V14.7a3.731,3.731,0,0,0,3.72,3.72h6.045L26.559,24v-5.58h3.72A3.731,3.731,0,0,0,34,14.7V4.47A3.731,3.731,0,0,0,30.279.75Z" transform="translate(108.964 459.249)" fill="#fff"/>
  </g>
</svg>
