<svg xmlns="http://www.w3.org/2000/svg" width="62" height="62" viewBox="0 0 36.2 13.677">
  <g id="white-fine-chiamata" transform="translate(-493.206 -78.069)">
    <path id="Path_62" data-name="Path 62" d="M35.559,7.224a26.79,26.79,0,0,1-34.9-.016A1.8,1.8,0,0,1,.516,4.553L4.555.515A1.774,1.774,0,0,1,6.727.257l4.119,2.478A1.811,1.811,0,0,1,11.7,4.521l-.5,3.6a22.4,22.4,0,0,0,13.966-.048l-.5-3.507A1.772,1.772,0,0,1,25.5,2.783L29.59.338a1.8,1.8,0,0,1,2.188.274l3.91,3.974A1.807,1.807,0,0,1,35.559,7.224Z" transform="translate(529.406 91.746) rotate(180)" fill="#fff"/>
  </g>
</svg>
